{
  "accessors": [
    {
      "bufferView": 2,
      "componentType": 5126,
      "count": 3368,
      "max": [
        0.14902354776859283,
        1.1148388385772705,
        0.39932703971862793
      ],
      "min": [
        -0.16069994866847992,
        -1.1051115989685059,
        -0.9702297449111938
      ],
      "type": "VEC3"
    },
    {
      "bufferView": 2,
      "byteOffset": 40416,
      "componentType": 5126,
      "count": 3368,
      "max": [
        1.0,
        1.0,
        1.0
      ],
      "min": [
        -1.0,
        -1.0,
        -1.0
      ],
      "type": "VEC3"
    },
    {
      "bufferView": 3,
      "componentType": 5126,
      "count": 3368,
      "max": [
        1.0,
        1.0,
        1.0,
        1.0
      ],
      "min": [
        -1.0,
        -1.0,
        -1.0,
        1.0
      ],
      "type": "VEC4"
    },
    {
      "bufferView": 1,
      "componentType": 5126,
      "count": 3368,
      "max": [
        0.9979709982872009,
        0.9976474642753601
      ],
      "min": [
        0.0020290573593229055,
        0.00202903151512146
      ],
      "type": "VEC2"
    },
    {
      "bufferView": 1,
      "byteOffset": 26944,
      "componentType": 5126,
      "count": 3368,
      "max": [
        0.9979709982872009,
        0.9976474642753601
      ],
      "min": [
        0.0020290573593229055,
        0.00202903151512146
      ],
      "type": "VEC2"
    },
    {
      "bufferView": 1,
      "byteOffset": 53888,
      "componentType": 5126,
      "count": 3368,
      "max": [
        0.9979709982872009,
        0.9976474642753601
      ],
      "min": [
        0.0020290573593229055,
        0.00202903151512146
      ],
      "type": "VEC2"
    },
    {
      "bufferView": 1,
      "byteOffset": 80832,
      "componentType": 5126,
      "count": 3368,
      "max": [
        0.9979709982872009,
        0.9976474642753601
      ],
      "min": [
        0.0020290573593229055,
        0.00202903151512146
      ],
      "type": "VEC2"
    },
    {
      "bufferView": 1,
      "byteOffset": 107776,
      "componentType": 5126,
      "count": 3368,
      "max": [
        0.9979709982872009,
        0.9976474642753601
      ],
      "min": [
        0.0020290573593229055,
        0.00202903151512146
      ],
      "type": "VEC2"
    },
    {
      "bufferView": 1,
      "byteOffset": 134720,
      "componentType": 5126,
      "count": 3368,
      "max": [
        0.9979709982872009,
        0.9976474642753601
      ],
      "min": [
        0.0020290573593229055,
        0.00202903151512146
      ],
      "type": "VEC2"
    },
    {
      "bufferView": 1,
      "byteOffset": 161664,
      "componentType": 5126,
      "count": 3368,
      "max": [
        0.9979709982872009,
        0.9976474642753601
      ],
      "min": [
        0.0020290573593229055,
        0.00202903151512146
      ],
      "type": "VEC2"
    },
    {
      "bufferView": 1,
      "byteOffset": 188608,
      "componentType": 5126,
      "count": 3368,
      "max": [
        0.9979709982872009,
        0.9976474642753601
      ],
      "min": [
        0.0020290573593229055,
        0.00202903151512146
      ],
      "type": "VEC2"
    },
    {
      "bufferView": 1,
      "byteOffset": 215552,
      "componentType": 5126,
      "count": 3368,
      "max": [
        0.9979709982872009,
        0.9976474642753601
      ],
      "min": [
        0.0020290573593229055,
        0.00202903151512146
      ],
      "type": "VEC2"
    },
    {
      "bufferView": 1,
      "byteOffset": 242496,
      "componentType": 5126,
      "count": 3368,
      "max": [
        0.9979709982872009,
        0.9976474642753601
      ],
      "min": [
        0.0020290573593229055,
        0.00202903151512146
      ],
      "type": "VEC2"
    },
    {
      "bufferView": 0,
      "componentType": 5125,
      "count": 12117,
      "type": "SCALAR"
    },
    {
      "bufferView": 2,
      "byteOffset": 80832,
      "componentType": 5126,
      "count": 1990,
      "max": [
        0.11735621839761734,
        1.022329330444336,
        0.4791949987411499
      ],
      "min": [
        -0.13438957929611206,
        -1.0993647575378418,
        0.03311227262020111
      ],
      "type": "VEC3"
    },
    {
      "bufferView": 2,
      "byteOffset": 104712,
      "componentType": 5126,
      "count": 1990,
      "max": [
        1.0,
        1.0,
        1.0
      ],
      "min": [
        -1.0,
        -1.0,
        -1.0
      ],
      "type": "VEC3"
    },
    {
      "bufferView": 3,
      "byteOffset": 53888,
      "componentType": 5126,
      "count": 1990,
      "max": [
        1.0,
        1.0,
        1.0,
        1.0
      ],
      "min": [
        -1.0,
        -1.0,
        -1.0,
        -1.0
      ],
      "type": "VEC4"
    },
    {
      "bufferView": 1,
      "byteOffset": 269440,
      "componentType": 5126,
      "count": 1990,
      "max": [
        0.9971109628677368,
        0.9966173768043518
      ],
      "min": [
        0.002889032242819667,
        0.002889032242819667
      ],
      "type": "VEC2"
    },
    {
      "bufferView": 1,
      "byteOffset": 285360,
      "componentType": 5126,
      "count": 1990,
      "max": [
        0.9971109628677368,
        0.9966173768043518
      ],
      "min": [
        0.002889032242819667,
        0.002889032242819667
      ],
      "type": "VEC2"
    },
    {
      "bufferView": 1,
      "byteOffset": 301280,
      "componentType": 5126,
      "count": 1990,
      "max": [
        0.9971109628677368,
        0.9966173768043518
      ],
      "min": [
        0.002889032242819667,
        0.002889032242819667
      ],
      "type": "VEC2"
    },
    {
      "bufferView": 1,
      "byteOffset": 317200,
      "componentType": 5126,
      "count": 1990,
      "max": [
        0.9971109628677368,
        0.9966173768043518
      ],
      "min": [
        0.002889032242819667,
        0.002889032242819667
      ],
      "type": "VEC2"
    },
    {
      "bufferView": 1,
      "byteOffset": 333120,
      "componentType": 5126,
      "count": 1990,
      "max": [
        0.9971109628677368,
        0.9966173768043518
      ],
      "min": [
        0.002889032242819667,
        0.002889032242819667
      ],
      "type": "VEC2"
    },
    {
      "bufferView": 1,
      "byteOffset": 349040,
      "componentType": 5126,
      "count": 1990,
      "max": [
        0.9971109628677368,
        0.9966173768043518
      ],
      "min": [
        0.002889032242819667,
        0.002889032242819667
      ],
      "type": "VEC2"
    },
    {
      "bufferView": 1,
      "byteOffset": 364960,
      "componentType": 5126,
      "count": 1990,
      "max": [
        0.9971109628677368,
        0.9966173768043518
      ],
      "min": [
        0.002889032242819667,
        0.002889032242819667
      ],
      "type": "VEC2"
    },
    {
      "bufferView": 1,
      "byteOffset": 380880,
      "componentType": 5126,
      "count": 1990,
      "max": [
        0.9971109628677368,
        0.9966173768043518
      ],
      "min": [
        0.002889032242819667,
        0.002889032242819667
      ],
      "type": "VEC2"
    },
    {
      "bufferView": 1,
      "byteOffset": 396800,
      "componentType": 5126,
      "count": 1990,
      "max": [
        0.9971109628677368,
        0.9966173768043518
      ],
      "min": [
        0.002889032242819667,
        0.002889032242819667
      ],
      "type": "VEC2"
    },
    {
      "bufferView": 1,
      "byteOffset": 412720,
      "componentType": 5126,
      "count": 1990,
      "max": [
        0.9971109628677368,
        0.9966173768043518
      ],
      "min": [
        0.002889032242819667,
        0.002889032242819667
      ],
      "type": "VEC2"
    },
    {
      "bufferView": 0,
      "byteOffset": 48468,
      "componentType": 5125,
      "count": 4542,
      "type": "SCALAR"
    }
  ],
  "asset": {
    "extras": {
      "author": "TORI106 (https://sketchfab.com/TORI106)",
      "license": "CC-BY-4.0 (http://creativecommons.org/licenses/by/4.0/)",
      "source": "https://sketchfab.com/3d-models/9mm-c10-pistol-e39402c287ef4f5c99ed73d321b957a8",
      "title": "9mm_C10 Pistol"
    },
    "generator": "Sketchfab-14.10.0",
    "version": "2.0"
  },
  "bufferViews": [
    {
      "buffer": 0,
      "byteLength": 66636,
      "name": "floatBufferViews",
      "target": 34963
    },
    {
      "buffer": 0,
      "byteLength": 428640,
      "byteOffset": 66636,
      "byteStride": 8,
      "name": "floatBufferViews",
      "target": 34962
    },
    {
      "buffer": 0,
      "byteLength": 128592,
      "byteOffset": 495276,
      "byteStride": 12,
      "name": "floatBufferViews",
      "target": 34962
    },
    {
      "buffer": 0,
      "byteLength": 85728,
      "byteOffset": 623868,
      "byteStride": 16,
      "name": "floatBufferViews",
      "target": 34962
    }
  ],
  "buffers": [
    {
      "byteLength": 709596,
      "uri": "scene.bin"
    }
  ],
  "images": [
    {
      "uri": "textures/material_baseColor.png"
    },
    {
      "uri": "textures/material_metallicRoughness.png"
    },
    {
      "uri": "textures/material_normal.png"
    },
    {
      "uri": "textures/material_1_baseColor.png"
    },
    {
      "uri": "textures/material_1_metallicRoughness.png"
    },
    {
      "uri": "textures/material_1_normal.png"
    }
  ],
  "materials": [
    {
      "doubleSided": true,
      "name": "material",
      "normalTexture": {
        "index": 2
      },
      "pbrMetallicRoughness": {
        "baseColorTexture": {
          "index": 0
        },
        "metallicRoughnessTexture": {
          "index": 1
        }
      }
    },
    {
      "doubleSided": true,
      "name": "material_1",
      "normalTexture": {
        "index": 5
      },
      "pbrMetallicRoughness": {
        "baseColorTexture": {
          "index": 3
        },
        "metallicRoughnessTexture": {
          "index": 4
        }
      }
    }
  ],
  "meshes": [
    {
      "name": "Cylinder.003_p-2_0",
      "primitives": [
        {
          "attributes": {
            "NORMAL": 1,
            "POSITION": 0,
            "TANGENT": 2,
            "TEXCOORD_0": 3,
            "TEXCOORD_1": 4,
            "TEXCOORD_2": 5,
            "TEXCOORD_3": 6,
            "TEXCOORD_4": 7,
            "TEXCOORD_5": 8,
            "TEXCOORD_6": 9,
            "TEXCOORD_7": 10,
            "TEXCOORD_8": 11,
            "TEXCOORD_9": 12
          },
          "indices": 13,
          "material": 0,
          "mode": 4
        }
      ]
    },
    {
      "name": "Cylinder.003_P-1_0",
      "primitives": [
        {
          "attributes": {
            "NORMAL": 15,
            "POSITION": 14,
            "TANGENT": 16,
            "TEXCOORD_0": 17,
            "TEXCOORD_1": 18,
            "TEXCOORD_2": 19,
            "TEXCOORD_3": 20,
            "TEXCOORD_4": 21,
            "TEXCOORD_5": 22,
            "TEXCOORD_6": 23,
            "TEXCOORD_7": 24,
            "TEXCOORD_8": 25,
            "TEXCOORD_9": 26
          },
          "indices": 27,
          "material": 1,
          "mode": 4
        }
      ]
    }
  ],
  "nodes": [
    {
      "children": [
        1
      ],
      "matrix": [
        1.0,
        0.0,
        0.0,
        0.0,
        0.0,
        2.220446049250313e-16,
        -1.0,
        0.0,
        0.0,
        1.0,
        2.220446049250313e-16,
        0.0,
        0.0,
        0.0,
        0.0,
        1.0
      ],
      "name": "Sketchfab_model"
    },
    {
      "children": [
        2
      ],
      "matrix": [
        0.009999999776482582,
        0.0,
        0.0,
        0.0,
        0.0,
        0.0,
        0.009999999776482582,
        0.0,
        0.0,
        -0.009999999776482582,
        0.0,
        0.0,
        0.0,
        0.0,
        0.0,
        1.0
      ],
      "name": "CZ-P-10.fbx"
    },
    {
      "children": [
        3
      ],
      "name": "RootNode"
    },
    {
      "children": [
        4,
        5
      ],
      "matrix": [
        100.0,
        0.0,
        0.0,
        0.0,
        0.0,
        -1.331580541386046e-05,
        -99.99999999999912,
        0.0,
        0.0,
        99.99999999999912,
        -1.331580541386046e-05,
        0.0,
        0.769823431968689,
        26.619234085083008,
        34.81038284301758,
        1.0
      ],
      "name": "Cylinder.003"
    },
    {
      "mesh": 0,
      "name": "Cylinder.003_p-2_0"
    },
    {
      "children": [
        6
      ],
      "matrix": [
        1.0,
        0.0,
        0.0,
        0.0,
        0.0,
        1.0,
        -2.6469779601696886e-23,
        0.0,
        0.0,
        2.6469779601696886e-23,
        1.0,
        0.0,
        0.0,
        0.0,
        0.0,
        1.0
      ],
      "name": "Cylinder.003"
    },
    {
      "mesh": 1,
      "name": "Cylinder.003_P-1_0"
    }
  ],
  "samplers": [
    {
      "magFilter": 9729,
      "minFilter": 9987,
      "wrapS": 10497,
      "wrapT": 10497
    }
  ],
  "scene": 0,
  "scenes": [
    {
      "name": "Sketchfab_Scene",
      "nodes": [
        0
      ]
    }
  ],
  "textures": [
    {
      "sampler": 0,
      "source": 0
    },
    {
      "sampler": 0,
      "source": 1
    },
    {
      "sampler": 0,
      "source": 2
    },
    {
      "sampler": 0,
      "source": 3
    },
    {
      "sampler": 0,
      "source": 4
    },
    {
      "sampler": 0,
      "source": 5
    }
  ]
}
